<svg xmlns="http://www.w3.org/2000/svg" viewBox="0 0 40 40"><linearGradient id="a" gradientUnits="userSpaceOnUse" x1="232.004" y1="-280.112" x2="241.945" y2="-290.053" gradientTransform="matrix(1.25 0 0 -1.25 -286.125 -324.875)"><stop offset="0" stop-color="#fff"/><stop offset="1" stop-color="#fff" stop-opacity=".75"/></linearGradient><path fill="url(#a)" d="M20 36.286v2.464c-4.801.005-9.603-1.826-13.265-5.498-3.652-3.66-5.48-8.455-5.485-13.252h2.498c0 4.168 1.587 8.335 4.76 11.516 3.173 3.18 7.333 4.77 11.492 4.77z"/><linearGradient id="b" gradientUnits="userSpaceOnUse" x1="248.602" y1="-289.314" x2="258.065" y2="-279.852" gradientTransform="matrix(1.25 0 0 -1.25 -286.125 -324.875)"><stop offset="0" stop-color="#fff" stop-opacity=".75"/><stop offset="1" stop-color="#fff" stop-opacity=".5"/></linearGradient><path fill="url(#b)" d="M33.252 33.252c-3.66 3.66-8.455 5.492-13.252 5.498v-2.464c4.168-.001 8.336-1.591 11.516-4.771 3.18-3.181 4.77-7.348 4.77-11.516h2.465c-.007 4.798-1.839 9.593-5.499 13.253z"/><linearGradient id="c" gradientUnits="userSpaceOnUse" x1="259.243" y1="-273.136" x2="247.656" y2="-261.549" gradientTransform="matrix(1.25 0 0 -1.25 -286.125 -324.875)"><stop offset="0" stop-color="#fff" stop-opacity=".5"/><stop offset="1" stop-color="#fff" stop-opacity=".25"/></linearGradient><path fill="url(#c)" d="M36.285 20c.001-4.159-1.589-8.319-4.77-11.493-3.179-3.172-7.347-4.758-11.515-4.758v-2.499c4.797.005 9.592 1.834 13.252 5.485 3.672 3.663 5.504 8.464 5.498 13.265h-2.465z"/><linearGradient id="d" gradientUnits="userSpaceOnUse" x1="231.148" y1="-272.541" x2="241.544" y2="-262.144" gradientTransform="matrix(1.25 0 0 -1.25 -286.125 -324.875)"><stop offset="0" stop-color="#fff" stop-opacity="0"/><stop offset="1" stop-color="#fff" stop-opacity=".25"/></linearGradient><path fill="url(#d)" d="M20 3.749c-4.159 0-8.319 1.586-11.493 4.76-3.173 3.174-4.759 7.332-4.759 11.491h-2.498c-.006-4.801 1.821-9.603 5.485-13.265 3.662-3.663 8.464-5.49 13.265-5.485v2.499z"/><linearGradient id="e" gradientUnits="userSpaceOnUse" x1="239.149" y1="-277.601" x2="243.788" y2="-282.24" gradientTransform="matrix(1.25 0 0 -1.25 -286.125 -324.875)"><stop offset="0" stop-color="#fff"/><stop offset="1" stop-color="#fff" stop-opacity=".75"/></linearGradient><path fill="url(#e)" d="M20 28.75c-2.239.002-4.481-.854-6.191-2.566-1.701-1.709-2.554-3.945-2.559-6.184h2.487c-.001 1.602.609 3.203 1.832 4.425 1.224 1.224 2.826 1.834 4.43 1.831v2.494h.001z"/><linearGradient id="f" gradientUnits="userSpaceOnUse" x1="235.581" y1="-278.853" x2="242.871" y2="-286.143" gradientTransform="matrix(1.25 0 0 -1.25 -286.125 -324.875)"><stop offset="0" stop-color="#fff"/><stop offset="1" stop-color="#fff" stop-opacity=".75"/></linearGradient><path fill="url(#f)" d="M20 31.236v2.514c-3.521.006-7.044-1.338-9.729-4.033-2.676-2.684-4.016-6.199-4.021-9.717h2.506c.005 2.873 1.1 5.748 3.286 7.939 2.197 2.204 5.079 3.302 7.958 3.297z"/><linearGradient id="g" gradientUnits="userSpaceOnUse" x1="246.359" y1="-281.891" x2="250.774" y2="-277.477" gradientTransform="matrix(1.25 0 0 -1.25 -286.125 -324.875)"><stop offset="0" stop-color="#fff" stop-opacity=".75"/><stop offset="1" stop-color="#fff" stop-opacity=".5"/></linearGradient><path fill="url(#g)" d="M20 28.75v-2.494c1.6-.002 3.201-.612 4.422-1.831 1.225-1.222 1.837-2.823 1.837-4.425h2.491c-.004 2.238-.859 4.475-2.564 6.184-1.707 1.709-3.946 2.564-6.186 2.566z"/><linearGradient id="h" gradientUnits="userSpaceOnUse" x1="251.324" y1="-274.881" x2="245.916" y2="-269.474" gradientTransform="matrix(1.25 0 0 -1.25 -286.125 -324.875)"><stop offset="0" stop-color="#fff" stop-opacity=".5"/><stop offset="1" stop-color="#fff" stop-opacity=".25"/></linearGradient><path fill="url(#h)" d="M20 11.25c2.24.002 4.479.855 6.186 2.558 1.716 1.708 2.569 3.952 2.566 6.192h-2.493c-.001-1.591-.612-3.185-1.837-4.401-1.221-1.215-2.822-1.823-4.422-1.825v-2.524z"/><linearGradient id="i" gradientUnits="userSpaceOnUse" x1="255.283" y1="-274.01" x2="246.786" y2="-265.513" gradientTransform="matrix(1.25 0 0 -1.25 -286.125 -324.875)"><stop offset="0" stop-color="#fff" stop-opacity=".5"/><stop offset="1" stop-color="#fff" stop-opacity=".25"/></linearGradient><path fill="url(#i)" d="M20 8.757v-2.507c3.518.005 7.033 1.345 9.717 4.021 2.695 2.686 4.039 6.207 4.033 9.729h-2.516c.007-2.879-1.091-5.759-3.295-7.956-2.191-2.187-5.066-3.281-7.939-3.287z"/><linearGradient id="j" gradientUnits="userSpaceOnUse" x1="238.753" y1="-274.605" x2="243.605" y2="-269.752" gradientTransform="matrix(1.25 0 0 -1.25 -286.125 -324.875)"><stop offset="0" stop-color="#fff" stop-opacity="0"/><stop offset="1" stop-color="#fff" stop-opacity=".25"/></linearGradient><path fill="url(#j)" d="M20 11.25v2.525c-1.604-.002-3.206.606-4.43 1.825-1.221 1.216-1.831 2.809-1.831 4.401h-2.487c-.004-2.24.849-4.484 2.557-6.193 1.71-1.708 3.952-2.56 6.191-2.558z"/><linearGradient id="k" gradientUnits="userSpaceOnUse" x1="234.949" y1="-273.571" x2="242.573" y2="-265.947" gradientTransform="matrix(1.25 0 0 -1.25 -286.125 -324.875)"><stop offset="0" stop-color="#fff" stop-opacity="0"/><stop offset="1" stop-color="#fff" stop-opacity=".25"/></linearGradient><path fill="url(#k)" d="M20 6.25v2.507c-2.879-.005-5.761 1.09-7.958 3.287-2.196 2.197-3.291 5.077-3.286 7.956h-2.506c-.005-3.521 1.334-7.042 4.021-9.729 2.685-2.686 6.208-4.026 9.729-4.021z"/><linearGradient id="l" gradientUnits="userSpaceOnUse" x1="247.474" y1="-285.594" x2="254.412" y2="-278.656" gradientTransform="matrix(1.25 0 0 -1.25 -286.125 -324.875)"><stop offset="0" stop-color="#fff" stop-opacity=".75"/><stop offset="1" stop-color="#fff" stop-opacity=".5"/></linearGradient><path fill="url(#l)" d="M20 33.75v-2.514c2.873-.006 5.748-1.104 7.939-3.299 2.194-2.189 3.292-5.064 3.297-7.939h2.514c-.005 3.517-1.349 7.035-4.033 9.716-2.684 2.687-6.199 4.031-9.717 4.036z"/></svg>