<svg xmlns="http://www.w3.org/2000/svg" width="16" height="16" viewBox="0 0 320 320"><path fill="#c91618" d="m40 0h240c22 0 40 17.9 40 40v240c0 22-17.9 40-40 40h-240c-22 0-40-17.9-40-40v-240c0-22 17.9-40 40-40"/><path fill="#fff" d="m176 50c-65 0-97 46-97 85 0 23.4 8.8 44 27.9 52 3.1 1.3 5.9.1 6.8-3.4l2.8-10.9c.9-3.4.6-4.6-1.9-7.6-5.5-6.5-9-14.9-9-26.7 0-34.4 25.7-65 67-65 36.6 0 56.7 22.3 56.7 52 0 39-17.4 72-43 72-14.2 0-24.9-11.8-21.5-26 4.1-17.3 12-35.8 12-48 0-11.1-6-20.4-18.3-20.4-14.5 0-26 15-26 35 0 12.9 4.3 21.6 4.3 21.6l-17.5 74c-5.2 22-.8 49-.4 51.7.2 1.6 2.3 2 3.2.8 1.3-1.7 18.7-23 24.6-44.6 1.7-6 9.6-37.4 9.6-37.4 4.7 9 18.6 17 33 17 43.8 0 73-39.9 73-93 0-40-34-78-86-78"/></svg>