<svg xmlns="http://www.w3.org/2000/svg" viewBox="0 0 40 40"><linearGradient id="a" gradientUnits="userSpaceOnUse" x1="217.728" y1="-261.338" x2="227.669" y2="-271.278" gradientTransform="matrix(1.333 0 0 -1.333 -287.501 -322.834)"><stop offset="0" stop-color="#fff"/><stop offset="1" stop-color="#fff" stop-opacity=".75"/></linearGradient><path fill="url(#a)" d="M20 37.371v2.629c-5.122.005-10.243-1.948-14.15-5.863-3.897-3.904-5.845-9.02-5.85-14.137h2.663c0 4.445 1.693 8.891 5.077 12.283 3.385 3.394 7.823 5.09 12.258 5.09l.002-.002z"/><linearGradient id="b" gradientUnits="userSpaceOnUse" x1="234.329" y1="-270.538" x2="243.79" y2="-261.077" gradientTransform="matrix(1.333 0 0 -1.333 -287.501 -322.834)"><stop offset="0" stop-color="#fff" stop-opacity=".75"/><stop offset="1" stop-color="#fff" stop-opacity=".5"/></linearGradient><path fill="url(#b)" d="M34.137 34.137c-3.904 3.903-9.019 5.856-14.137 5.863v-2.629c4.445-.001 8.892-1.696 12.283-5.09 3.391-3.391 5.087-7.836 5.087-12.283h2.63c-.007 5.117-1.96 10.232-5.863 14.136v.003z"/><linearGradient id="c" gradientUnits="userSpaceOnUse" x1="244.97" y1="-254.361" x2="233.383" y2="-242.774" gradientTransform="matrix(1.333 0 0 -1.333 -287.501 -322.834)"><stop offset="0" stop-color="#fff" stop-opacity=".5"/><stop offset="1" stop-color="#fff" stop-opacity=".25"/></linearGradient><path fill="url(#c)" d="M37.37 20c.001-4.437-1.695-8.874-5.087-12.258-3.391-3.384-7.838-5.077-12.283-5.077v-2.665c5.117.005 10.231 1.957 14.137 5.85 3.916 3.907 5.87 9.028 5.863 14.15h-2.63z"/><linearGradient id="d" gradientUnits="userSpaceOnUse" x1="216.872" y1="-253.766" x2="227.269" y2="-243.369" gradientTransform="matrix(1.333 0 0 -1.333 -287.501 -322.834)"><stop offset="0" stop-color="#fff" stop-opacity="0"/><stop offset="1" stop-color="#fff" stop-opacity=".25"/></linearGradient><path fill="url(#d)" d="M20 2.665c-4.437 0-8.874 1.691-12.258 5.077-3.385 3.385-5.077 7.822-5.077 12.257h-2.664c-.006-5.122 1.943-10.244 5.85-14.15 3.907-3.906 9.028-5.856 14.15-5.85v2.665l-.001.001z"/><linearGradient id="e" gradientUnits="userSpaceOnUse" x1="224.874" y1="-258.826" x2="229.513" y2="-263.465" gradientTransform="matrix(1.333 0 0 -1.333 -287.501 -322.834)"><stop offset="0" stop-color="#fff"/><stop offset="1" stop-color="#fff" stop-opacity=".75"/></linearGradient><path fill="url(#e)" d="M20 29.334c-2.388.003-4.78-.91-6.604-2.737-1.815-1.823-2.723-4.208-2.73-6.597h2.653c-.001 1.709.65 3.416 1.954 4.721 1.305 1.305 3.015 1.956 4.725 1.953v2.66h.002z"/><linearGradient id="f" gradientUnits="userSpaceOnUse" x1="221.306" y1="-260.079" x2="228.596" y2="-267.369" gradientTransform="matrix(1.333 0 0 -1.333 -287.501 -322.834)"><stop offset="0" stop-color="#fff"/><stop offset="1" stop-color="#fff" stop-opacity=".75"/></linearGradient><path fill="url(#f)" d="M20 31.984v2.682c-3.757.008-7.513-1.426-10.376-4.303-2.855-2.861-4.284-6.611-4.291-10.363h2.673c.005 3.064 1.173 6.132 3.505 8.469 2.344 2.349 5.417 3.523 8.489 3.515z"/><linearGradient id="g" gradientUnits="userSpaceOnUse" x1="232.085" y1="-263.116" x2="236.5" y2="-258.701" gradientTransform="matrix(1.333 0 0 -1.333 -287.501 -322.834)"><stop offset="0" stop-color="#fff" stop-opacity=".75"/><stop offset="1" stop-color="#fff" stop-opacity=".5"/></linearGradient><path fill="url(#g)" d="M20 29.334v-2.66c1.707-.004 3.415-.654 4.717-1.953 1.307-1.305 1.96-3.012 1.96-4.721h2.657c-.004 2.389-.918 4.773-2.737 6.597s-4.208 2.735-6.597 2.737z"/><linearGradient id="h" gradientUnits="userSpaceOnUse" x1="237.05" y1="-256.106" x2="231.642" y2="-250.699" gradientTransform="matrix(1.333 0 0 -1.333 -287.501 -322.834)"><stop offset="0" stop-color="#fff" stop-opacity=".5"/><stop offset="1" stop-color="#fff" stop-opacity=".25"/></linearGradient><path fill="url(#h)" d="M20 10.667c2.391.003 4.777.912 6.598 2.729 1.83 1.823 2.74 4.217 2.737 6.605h-2.658c-.002-1.697-.653-3.396-1.958-4.695-1.304-1.297-3.01-1.943-4.717-1.947v-2.692h-.002z"/><linearGradient id="i" gradientUnits="userSpaceOnUse" x1="241.008" y1="-255.236" x2="232.509" y2="-246.738" gradientTransform="matrix(1.333 0 0 -1.333 -287.501 -322.834)"><stop offset="0" stop-color="#fff" stop-opacity=".5"/><stop offset="1" stop-color="#fff" stop-opacity=".25"/></linearGradient><path fill="url(#i)" d="M20 8.008v-2.675c3.752.005 7.504 1.435 10.365 4.29 2.875 2.865 4.309 6.622 4.301 10.376h-2.683c.007-3.07-1.163-6.144-3.517-8.487-2.337-2.332-5.403-3.5-8.468-3.505h.002z"/><linearGradient id="j" gradientUnits="userSpaceOnUse" x1="224.48" y1="-255.829" x2="229.33" y2="-250.978" gradientTransform="matrix(1.333 0 0 -1.333 -287.501 -322.834)"><stop offset="0" stop-color="#fff" stop-opacity="0"/><stop offset="1" stop-color="#fff" stop-opacity=".25"/></linearGradient><path fill="url(#j)" d="M20 10.667v2.693c-1.71-.003-3.42.647-4.725 1.947-1.303 1.297-1.953 2.997-1.953 4.695h-2.653c-.003-2.39.905-4.783 2.728-6.605 1.823-1.824 4.216-2.732 6.603-2.73z"/><linearGradient id="k" gradientUnits="userSpaceOnUse" x1="220.675" y1="-254.797" x2="228.299" y2="-247.173" gradientTransform="matrix(1.333 0 0 -1.333 -287.501 -322.834)"><stop offset="0" stop-color="#fff" stop-opacity="0"/><stop offset="1" stop-color="#fff" stop-opacity=".25"/></linearGradient><path fill="url(#k)" d="M20 5.333v2.675c-3.07-.005-6.145 1.164-8.488 3.505-2.344 2.343-3.511 5.417-3.505 8.487h-2.674c-.005-3.757 1.423-7.512 4.29-10.376 2.864-2.866 6.622-4.296 10.377-4.291z"/><linearGradient id="l" gradientUnits="userSpaceOnUse" x1="233.198" y1="-266.82" x2="240.137" y2="-259.881" gradientTransform="matrix(1.333 0 0 -1.333 -287.501 -322.834)"><stop offset="0" stop-color="#fff" stop-opacity=".75"/><stop offset="1" stop-color="#fff" stop-opacity=".5"/></linearGradient><path fill="url(#l)" d="M20 34.666v-2.682c3.064-.006 6.13-1.176 8.471-3.518 2.34-2.337 3.51-5.403 3.516-8.468h2.682c-.005 3.751-1.438 7.503-4.301 10.363-2.863 2.865-6.613 4.299-10.366 4.304l-.002.001z"/></svg>