<svg xmlns="http://www.w3.org/2000/svg" viewBox="0 0 24 24"><linearGradient x1="3.104" y1="20.212" x2="13.045" y2="30.153" id="a" gradientUnits="userSpaceOnUse" gradientTransform="matrix(.8 0 0 .8 -.8 -.8)"><stop offset="0"/><stop offset="1" stop-opacity=".75"/></linearGradient><path d="m12 22.423v1.577c-3.073.003-6.146-1.169-8.49-3.518-2.338-2.342-3.507-5.412-3.51-8.482h1.598c0 2.667 1.016 5.334 3.046 7.37 2.031 2.036 4.694 3.054 7.355 3.054z" fill="url(#a)" fill-rule="evenodd"/><linearGradient x1="19.703" y1="29.414" x2="29.165" y2="19.952" id="b" gradientUnits="userSpaceOnUse" gradientTransform="matrix(.8 0 0 .8 -.8 -.8)"><stop offset="0" stop-opacity=".75"/><stop offset="1" stop-opacity=".5"/></linearGradient><path d="m20.482 20.482c-2.342 2.342-5.411 3.514-8.482 3.518v-1.577c2.667-.001 5.335-1.018 7.37-3.054 2.034-2.035 3.052-4.702 3.052-7.37h1.578c-.004 3.07-1.176 6.139-3.518 8.482z" fill="url(#b)" fill-rule="evenodd"/><linearGradient x1="30.344" y1="13.236" x2="18.757" y2="1.649" id="c" gradientUnits="userSpaceOnUse" gradientTransform="matrix(.8 0 0 .8 -.8 -.8)"><stop offset="0" stop-opacity=".5"/><stop offset="1" stop-opacity=".25"/></linearGradient><path d="M22.422 12c.001-2.662-1.017-5.324-3.052-7.355-2.035-2.03-4.703-3.046-7.37-3.046v-1.599c3.07.003 6.139 1.174 8.482 3.51 2.35 2.344 3.522 5.417 3.518 8.49h-1.578z" fill="url(#c)" fill-rule="evenodd"/><linearGradient x1="2.247" y1="12.642" x2="12.643" y2="2.245" id="d" gradientUnits="userSpaceOnUse" gradientTransform="matrix(.8 0 0 .8 -.8 -.8)"><stop offset="0" stop-opacity="0"/><stop offset="1" stop-opacity=".25"/></linearGradient><path d="m12 1.599c-2.662 0-5.324 1.015-7.355 3.046-2.031 2.031-3.046 4.693-3.046 7.354h-1.598c-.004-3.073 1.166-6.146 3.51-8.49 2.344-2.344 5.417-3.514 8.49-3.51v1.599z" fill="url(#d)" fill-rule="evenodd"/><linearGradient x1="10.248" y1="17.701" x2="14.887" y2="22.34" id="e" gradientUnits="userSpaceOnUse" gradientTransform="matrix(.8 0 0 .8 -.8 -.8)"><stop offset="0"/><stop offset="1" stop-opacity=".75"/></linearGradient><path d="M12 17.6c-1.433.002-2.868-.546-3.962-1.642-1.089-1.094-1.634-2.525-1.638-3.958h1.592c-.001 1.025.39 2.05 1.172 2.832.783.783 1.809 1.174 2.835 1.172v1.596z" fill="url(#e)" fill-rule="evenodd"/><linearGradient x1="6.68" y1="18.953" x2="13.97" y2="26.243" id="f" gradientUnits="userSpaceOnUse" gradientTransform="matrix(.8 0 0 .8 -.8 -.8)"><stop offset="0"/><stop offset="1" stop-opacity=".75"/></linearGradient><path d="m12 19.191v1.609c-2.254.004-4.508-.856-6.226-2.582-1.713-1.717-2.57-3.967-2.574-6.218h1.604c.003 1.839.704 3.679 2.103 5.081 1.406 1.41 3.25 2.114 5.093 2.11z" fill="url(#f)" fill-rule="evenodd"/><linearGradient x1="17.46" y1="21.991" x2="21.875" y2="17.576" id="g" gradientUnits="userSpaceOnUse" gradientTransform="matrix(.8 0 0 .8 -.8 -.8)"><stop offset="0" stop-opacity=".75"/><stop offset="1" stop-opacity=".5"/></linearGradient><path d="m12 17.6v-1.596c1.024-.002 2.049-.392 2.83-1.172.784-.782 1.176-1.807 1.176-2.832h1.594c-.002 1.433-.55 2.864-1.642 3.958-1.092 1.094-2.525 1.641-3.958 1.642z" fill="url(#g)" fill-rule="evenodd"/><linearGradient x1="22.423" y1="14.981" x2="17.015" y2="9.574" id="h" gradientUnits="userSpaceOnUse" gradientTransform="matrix(.8 0 0 .8 -.8 -.8)"><stop offset="0" stop-opacity=".5"/><stop offset="1" stop-opacity=".25"/></linearGradient><path d="m12 6.4c1.434.002 2.866.547 3.959 1.637 1.098 1.094 1.644 2.53 1.642 3.963h-1.595c-.001-1.018-.392-2.038-1.175-2.817-.782-.778-1.806-1.166-2.83-1.168v-1.615z" fill="url(#h)" fill-rule="evenodd"/><linearGradient x1="26.383" y1="14.11" x2="17.885" y2="5.612" id="i" gradientUnits="userSpaceOnUse" gradientTransform="matrix(.8 0 0 .8 -.8 -.8)"><stop offset="0" stop-opacity=".5"/><stop offset="1" stop-opacity=".25"/></linearGradient><path d="M12 4.805v-1.605c2.251.003 4.502.861 6.219 2.574 1.725 1.719 2.585 3.973 2.581 6.226h-1.61c.004-1.842-.698-3.686-2.11-5.092-1.402-1.399-3.242-2.1-5.081-2.103z" fill="url(#i)" fill-rule="evenodd"/><linearGradient x1="9.853" y1="14.704" x2="14.704" y2="9.852" id="j" gradientUnits="userSpaceOnUse" gradientTransform="matrix(.8 0 0 .8 -.8 -.8)"><stop offset="0" stop-opacity="0"/><stop offset="1" stop-opacity=".25"/></linearGradient><path d="M12 6.4v1.616c-1.026-.002-2.052.388-2.835 1.168-.782.778-1.172 1.798-1.172 2.817h-1.592c-.002-1.434.543-2.87 1.637-3.963 1.094-1.094 2.53-1.639 3.962-1.638z" fill="url(#j)" fill-rule="evenodd"/><linearGradient x1="6.049" y1="13.672" x2="13.673" y2="6.048" id="k" gradientUnits="userSpaceOnUse" gradientTransform="matrix(.8 0 0 .8 -.8 -.8)"><stop offset="0" stop-opacity="0"/><stop offset="1" stop-opacity=".25"/></linearGradient><path d="M12 3.2v1.605c-1.842-.003-3.687.698-5.093 2.103-1.406 1.406-2.106 3.25-2.103 5.092h-1.604c-.003-2.254.854-4.507 2.574-6.226 1.718-1.719 3.973-2.577 6.226-2.574z" fill="url(#k)" fill-rule="evenodd"/><linearGradient x1="18.574" y1="25.695" x2="25.513" y2="18.756" id="l" gradientUnits="userSpaceOnUse" gradientTransform="matrix(.8 0 0 .8 -.8 -.8)"><stop offset="0" stop-opacity=".75"/><stop offset="1" stop-opacity=".5"/></linearGradient><path d="m12 20.8v-1.609c1.839-.004 3.678-.706 5.082-2.111 1.404-1.402 2.106-3.242 2.11-5.081h1.609c-.003 2.251-.863 4.502-2.581 6.218-1.718 1.719-3.968 2.579-6.219 2.582z" fill="url(#l)" fill-rule="evenodd"/></svg>