<svg xmlns="http://www.w3.org/2000/svg" width="16" height="16" viewBox="0 0 320 320"><g transform="scale(20)"><path fill="#597da3" d="m2 0h12c1.1 0 2 .9 2 2v12c0 1.1-.9 2-2 2h-12c-1.1 0-2-.9-2-2v-12c0-1.1.9-2 2-2"/><path fill="#fff" d="m11.8 8.3c-.3-.4-.8-.6-1.4-.7.4-.2.7-.5.9-.8.2-.4.3-.8.3-1.2 0-.4-.1-.7-.2-1-.2-.3-.4-.5-.7-.7-.3-.2-.6-.3-1-.3-.4-.1-.9-.1-1.5-.1h-3.3v9.3h3.7c.6 0 1.2-.1 1.6-.2.4-.1.8-.3 1.1-.6.3-.2.5-.5.7-.9s.3-.8.3-1.2c0-.6-.2-1.1-.5-1.5m-4.6-3.2h.2c.4 0 .7 0 .9 0 .2 0 .4 0 .5.1.2.1.3.2.4.3.1.2.1.3.1.5 0 .2 0 .4-.1.5-.1.2-.2.3-.4.4-.2.1-.3.1-.5.1-.2 0-.4 0-.8 0h-.3v-2m2.6 5.3c-.1.2-.3.3-.5.4-.2.1-.5.2-.7.2-.2 0-.7 0-1.3 0h-.1v-2.3h.4 1c.2 0 .4 0 .6.1.2.1.4.2.5.4.1.2.2.4.2.7 0 .2 0 .4-.1.6"/></g></svg>