<svg xmlns="http://www.w3.org/2000/svg" viewBox="-41.5 58.5 16 16" enable-background="new -41.5 58.5 16 16"><path fill="#0d5191" d="m-39.5 58.5h12c1.1 0 2 .9 2 2v12c0 1.1-.9 2-2 2h-12c-1.1 0-2-.9-2-2v-12c0-1.1.9-2 2-2"/><path fill-rule="evenodd" fill="#fa0" d="m-33.67 63.6c.77 0 1.48.35 2 .9 0-.26.17-.46.41-.46h.06c.37 0 .45.37.45.48v4.12c-.03.27.27.41.43.23.63-.68 1.39-3.49-.39-5.12-1.67-1.52-3.9-1.27-5.09-.41-1.26.91-2.07 2.92-1.29 4.81.86 2.06 3.3 2.67 4.76 2.06.74-.31 1.08.73.31 1.07-1.16.51-4.38.46-5.88-2.25-1.02-1.83-.96-5.06 1.73-6.73 2.06-1.28 4.78-.92 6.42.86 1.71 1.86 1.61 5.36-.06 6.71-.76.62-1.88.02-1.87-.88v-.3c-.53.55-1.23.86-1.99.86-1.51 0-2.84-1.39-2.84-2.96 0-1.59 1.33-2.99 2.84-2.99m1.9 2.88c-.06-1.15-.88-1.84-1.87-1.84h-.04c-1.14 0-1.78.94-1.78 2 0 1.19.77 1.94 1.77 1.94 1.12 0 1.86-.86 1.91-1.87v-.23"/></svg>