<svg xmlns="http://www.w3.org/2000/svg" viewBox="0 0 48 48"><linearGradient x1="3.104" y1="20.212" x2="13.045" y2="30.153" id="a" gradientUnits="userSpaceOnUse" gradientTransform="matrix(1.6 0 0 1.6 -1.6 -1.6)"><stop offset="0"/><stop offset="1" stop-opacity=".75"/></linearGradient><path d="m24 44.846v3.154c-6.146.006-12.291-2.338-16.979-7.037-4.675-4.685-7.014-10.824-7.021-16.963h3.197c0 5.334 2.032 10.669 6.093 14.739 4.062 4.072 9.387 6.107 14.71 6.107z" fill="url(#a)" fill-rule="evenodd"/><linearGradient x1="19.703" y1="29.414" x2="29.165" y2="19.952" id="b" gradientUnits="userSpaceOnUse" gradientTransform="matrix(1.6 0 0 1.6 -1.6 -1.6)"><stop offset="0" stop-opacity=".75"/><stop offset="1" stop-opacity=".5"/></linearGradient><path d="M40.963 40.963c-4.685 4.685-10.822 7.029-16.963 7.037v-3.154c5.334-.002 10.67-2.037 14.741-6.107 4.069-4.07 6.104-9.405 6.104-14.739h3.155c-.008 6.139-2.352 12.278-7.037 16.963z" fill="url(#b)" fill-rule="evenodd"/><linearGradient x1="30.344" y1="13.236" x2="18.757" y2="1.649" id="c" gradientUnits="userSpaceOnUse" gradientTransform="matrix(1.6 0 0 1.6 -1.6 -1.6)"><stop offset="0" stop-opacity=".5"/><stop offset="1" stop-opacity=".25"/></linearGradient><path d="M44.845 24c.002-5.323-2.034-10.648-6.104-14.71-4.07-4.061-9.406-6.091-14.741-6.091v-3.198c6.141.006 12.278 2.347 16.963 7.021 4.699 4.688 7.045 10.834 7.037 16.979h-3.155z" fill="url(#c)" fill-rule="evenodd"/><linearGradient x1="2.247" y1="12.642" x2="12.643" y2="2.245" id="d" gradientUnits="userSpaceOnUse" gradientTransform="matrix(1.6 0 0 1.6 -1.6 -1.6)"><stop offset="0" stop-opacity="0"/><stop offset="1" stop-opacity=".25"/></linearGradient><path d="m24 3.198c-5.323 0-10.648 2.03-14.71 6.093-4.062 4.062-6.093 9.386-6.093 14.709h-3.197c-.008-6.146 2.331-12.291 7.021-16.979 4.688-4.688 10.834-7.027 16.979-7.021v3.198z" fill="url(#d)" fill-rule="evenodd"/><linearGradient x1="10.248" y1="17.701" x2="14.887" y2="22.34" id="e" gradientUnits="userSpaceOnUse" gradientTransform="matrix(1.6 0 0 1.6 -1.6 -1.6)"><stop offset="0"/><stop offset="1" stop-opacity=".75"/></linearGradient><path d="m24 35.2c-2.866.003-5.736-1.093-7.925-3.285-2.178-2.187-3.269-5.05-3.275-7.915h3.184c-.002 2.05.779 4.099 2.344 5.664 1.566 1.566 3.618 2.347 5.67 2.344v3.192z" fill="url(#e)" fill-rule="evenodd"/><linearGradient x1="6.68" y1="18.953" x2="13.97" y2="26.243" id="f" gradientUnits="userSpaceOnUse" gradientTransform="matrix(1.6 0 0 1.6 -1.6 -1.6)"><stop offset="0"/><stop offset="1" stop-opacity=".75"/></linearGradient><path d="m24 38.382v3.218c-4.507.008-9.016-1.712-12.453-5.163-3.426-3.434-5.141-7.934-5.147-12.437h3.208c.006 3.678 1.408 7.358 4.206 10.162 2.811 2.821 6.501 4.227 10.186 4.221z" fill="url(#f)" fill-rule="evenodd"/><linearGradient x1="17.46" y1="21.991" x2="21.875" y2="17.576" id="g" gradientUnits="userSpaceOnUse" gradientTransform="matrix(1.6 0 0 1.6 -1.6 -1.6)"><stop offset="0" stop-opacity=".75"/><stop offset="1" stop-opacity=".5"/></linearGradient><path d="m24 35.2v-3.192c2.048-.003 4.098-.784 5.659-2.344 1.568-1.565 2.352-3.614 2.352-5.664h3.189c-.005 2.866-1.099 5.728-3.283 7.915-2.184 2.187-5.05 3.282-7.917 3.285z" fill="url(#g)" fill-rule="evenodd"/><linearGradient x1="22.423" y1="14.981" x2="17.015" y2="9.574" id="h" gradientUnits="userSpaceOnUse" gradientTransform="matrix(1.6 0 0 1.6 -1.6 -1.6)"><stop offset="0" stop-opacity=".5"/><stop offset="1" stop-opacity=".25"/></linearGradient><path d="m24 12.8c2.867.003 5.733 1.094 7.918 3.274 2.195 2.187 3.288 5.059 3.283 7.926h-3.19c-.002-2.037-.784-4.077-2.35-5.634-1.563-1.555-3.613-2.333-5.661-2.336v-3.23z" fill="url(#h)" fill-rule="evenodd"/><linearGradient x1="26.383" y1="14.11" x2="17.885" y2="5.612" id="i" gradientUnits="userSpaceOnUse" gradientTransform="matrix(1.6 0 0 1.6 -1.6 -1.6)"><stop offset="0" stop-opacity=".5"/><stop offset="1" stop-opacity=".25"/></linearGradient><path d="M24 9.61v-3.21c4.502.006 9.003 1.722 12.438 5.147 3.45 3.438 5.17 7.946 5.162 12.453h-3.219c.008-3.685-1.397-7.371-4.219-10.184-2.805-2.798-6.483-4.2-10.162-4.206z" fill="url(#i)" fill-rule="evenodd"/><linearGradient x1="9.853" y1="14.704" x2="14.704" y2="9.852" id="j" gradientUnits="userSpaceOnUse" gradientTransform="matrix(1.6 0 0 1.6 -1.6 -1.6)"><stop offset="0" stop-opacity="0"/><stop offset="1" stop-opacity=".25"/></linearGradient><path d="M24 12.8v3.232c-2.053-.003-4.104.776-5.67 2.336-1.563 1.557-2.344 3.595-2.344 5.634h-3.184c-.005-2.867 1.086-5.739 3.274-7.926 2.189-2.187 5.059-3.278 7.925-3.275z" fill="url(#j)" fill-rule="evenodd"/><linearGradient x1="6.049" y1="13.672" x2="13.673" y2="6.048" id="k" gradientUnits="userSpaceOnUse" gradientTransform="matrix(1.6 0 0 1.6 -1.6 -1.6)"><stop offset="0" stop-opacity="0"/><stop offset="1" stop-opacity=".25"/></linearGradient><path d="m24 6.4v3.21c-3.685-.006-7.374 1.395-10.186 4.206-2.811 2.813-4.213 6.499-4.206 10.184h-3.208c-.006-4.507 1.707-9.014 5.147-12.453 3.437-3.438 7.946-5.154 12.453-5.147z" fill="url(#k)" fill-rule="evenodd"/><linearGradient x1="18.574" y1="25.695" x2="25.513" y2="18.756" id="l" gradientUnits="userSpaceOnUse" gradientTransform="matrix(1.6 0 0 1.6 -1.6 -1.6)"><stop offset="0" stop-opacity=".75"/><stop offset="1" stop-opacity=".5"/></linearGradient><path d="M24 41.6v-3.218c3.678-.008 7.357-1.413 10.163-4.222 2.808-2.803 4.213-6.483 4.219-10.162h3.218c-.006 4.502-1.726 9.003-5.162 12.437-3.435 3.438-7.936 5.158-12.438 5.165z" fill="url(#l)" fill-rule="evenodd"/></svg>