<svg xmlns="http://www.w3.org/2000/svg" viewBox="-7.5 17.5 16 16" enable-background="new -7.5 17.5 16 16"><path fill="#d93e2d" d="m-5.5 17.5h12c1.1 0 2 .9 2 2v12c0 1.1-.9 2-2 2h-12c-1.1 0-2-.9-2-2v-12c0-1.1.9-2 2-2"/><g fill="#fff"><path d="m1.64 26.35l-.56-.44c-.17-.14-.41-.33-.41-.67 0-.35.23-.57.44-.77.66-.52 1.31-1.06 1.31-2.22 0-1.19-.75-1.82-1.11-2.11h.97l1.02-.64h-3.08c-.84 0-2.06.2-2.95.94-.67.58-1 1.38-1 2.1 0 1.22.94 2.45 2.59 2.45l.5-.03c-.08.19-.16.34-.16.61 0 .49.25.78.47 1.06-.7.05-2 .13-2.98.72-.92.55-1.2 1.35-1.2 1.91 0 1.16 1.09 2.24 3.36 2.24 2.69 0 4.11-1.49 4.11-2.96 0-1.08-.62-1.61-1.31-2.19m-2.05-1.8c-1.34 0-1.95-1.73-1.95-2.78 0-.41.08-.83.34-1.16.25-.31.69-.52 1.09-.52 1.3 0 1.97 1.75 1.97 2.88 0 .28-.03.78-.39 1.14-.25.25-.67.43-1.06.43m.01 6.29c-1.67 0-2.75-.8-2.75-1.91 0-1.11 1-1.49 1.34-1.61.66-.22 1.5-.25 1.64-.25l.36.02c1.19.85 1.7 1.27 1.7 2.07 0 .97-.8 1.69-2.3 1.69"/><path d="m5.47 24.52v-1.92h-.95v1.92h-1.91v.95h1.91v1.93h.95v-1.93h1.92v-.95z"/></g></svg>