<svg xmlns="http://www.w3.org/2000/svg" width="16" height="16" viewBox="0 0 320 320"><path fill-rule="evenodd" fill="#38a8e0" d="m40 0h240c22 0 40 17.9 40 40v240c0 22-17.9 40-40 40h-240c-22 0-40-17.9-40-40v-240c0-22 17.9-40 40-40"/><path fill="#fff" d="m267 94c-7.9 3.5-16.3 5.8-25 6.9 9-5.4 16-14 19.3-24-8.5 5-17.8 8.7-27.8 10.6-8-8.5-19.4-13.8-32-13.8-24 0-43.8 19.6-43.8 43.8 0 3.4.4 6.8 1.1 10-36-1.8-69-19.3-90-45.8-3.8 6.5-5.9 14-5.9 22 0 15.2 7.7 28.6 19.5 36.4-7.2-.2-13.9-2.2-19.8-5.5v.5c0 21 15 38.9 35 42.9-3.7 1-7.5 1.5-11.5 1.5-2.8 0-5.6-.3-8.2-.8 5.6 17.4 21.7 30 40.9 30.4-15 11.7-33.9 18.7-54 18.7-3.5 0-7-.2-10.4-.6 19.4 12.4 42 19.6 67 19.6 81 0 125-67 125-125l-.1-5.7c8.6-6.2 16-13.9 21.9-22.7"/></svg>