<svg xmlns="http://www.w3.org/2000/svg" width="18" height="54" viewBox="0 0 360 1080"><path fill="#010101" d="m260 908c0-44-35.8-80-80-80s-80 35.8-80 80c0 32.6 19.6 61 47.6 73l16.2-36.5c-14-6.2-23.8-20.2-23.8-36.5 0-22 17.9-40 40-40s40 17.9 40 40c0 16.3-9.8 30-23.8 36.5l16.2 36.5c28-12.5 47.6-40 47.6-73m-80-180c-99 0-180 81-180 180 0 73 44 136 107 164l24.3-54.8c-42-18.7-71-60.8-71-110 0-66 53.7-120 120-120 66 0 120 53.8 120 120 0 48.9-29.3 91-71 110l24.3 54.8c63-28 107-91 107-164 0-99-81-180-180-180"/><path fill="#020202" d="m90 306l219-127-219-127z"/><path fill="#010101" d="m80 660h80v-240h-80v240m120-240v240h80v-240h-80"/></svg>