<svg xmlns="http://www.w3.org/2000/svg" viewBox="0 0 16 16"><linearGradient x1="3.104" y1="20.212" x2="13.045" y2="30.153" id="a" gradientUnits="userSpaceOnUse" gradientTransform="matrix(.533 0 0 .533 -.533 -.533)"><stop offset="0"/><stop offset="1" stop-opacity=".75"/></linearGradient><path d="m8 14.949v1.051c-2.049.002-4.097-.779-5.66-2.346-1.558-1.562-2.338-3.608-2.34-5.654h1.066c0 1.778.677 3.556 2.031 4.913 1.354 1.357 3.129 2.036 4.903 2.036z" fill="url(#a)" fill-rule="evenodd"/><linearGradient x1="19.703" y1="29.414" x2="29.165" y2="19.952" id="b" gradientUnits="userSpaceOnUse" gradientTransform="matrix(.533 0 0 .533 -.533 -.533)"><stop offset="0" stop-opacity=".75"/><stop offset="1" stop-opacity=".5"/></linearGradient><path d="m13.654 13.654c-1.562 1.562-3.607 2.343-5.654 2.346v-1.051c1.778-.001 3.557-.679 4.914-2.036 1.356-1.357 2.035-3.135 2.035-4.913h1.052c-.003 2.046-.784 4.093-2.346 5.654z" fill="url(#b)" fill-rule="evenodd"/><linearGradient x1="30.344" y1="13.236" x2="18.757" y2="1.649" id="c" gradientUnits="userSpaceOnUse" gradientTransform="matrix(.533 0 0 .533 -.533 -.533)"><stop offset="0" stop-opacity=".5"/><stop offset="1" stop-opacity=".25"/></linearGradient><path d="M14.948 8c.001-1.774-.678-3.549-2.035-4.903-1.357-1.354-3.135-2.03-4.914-2.03v-1.066c2.047.002 4.093.782 5.654 2.34 1.566 1.563 2.348 3.611 2.346 5.66h-1.052z" fill="url(#c)" fill-rule="evenodd"/><linearGradient x1="2.247" y1="12.642" x2="12.643" y2="2.245" id="d" gradientUnits="userSpaceOnUse" gradientTransform="matrix(.533 0 0 .533 -.533 -.533)"><stop offset="0" stop-opacity="0"/><stop offset="1" stop-opacity=".25"/></linearGradient><path d="m8 1.066c-1.774 0-3.549.677-4.903 2.031-1.354 1.354-2.031 3.129-2.031 4.903h-1.066c-.003-2.049.777-4.097 2.34-5.66 1.563-1.563 3.611-2.342 5.66-2.34v1.066z" fill="url(#d)" fill-rule="evenodd"/><linearGradient x1="10.248" y1="17.701" x2="14.887" y2="22.34" id="e" gradientUnits="userSpaceOnUse" gradientTransform="matrix(.533 0 0 .533 -.533 -.533)"><stop offset="0"/><stop offset="1" stop-opacity=".75"/></linearGradient><path d="M8 11.733c-.955.001-1.912-.364-2.642-1.095-.726-.729-1.09-1.683-1.092-2.638h1.061c-.001.683.26 1.366.781 1.888.522.522 1.206.782 1.89.781v1.064z" fill="url(#e)" fill-rule="evenodd"/><linearGradient x1="6.68" y1="18.953" x2="13.97" y2="26.243" id="f" gradientUnits="userSpaceOnUse" gradientTransform="matrix(.533 0 0 .533 -.533 -.533)"><stop offset="0"/><stop offset="1" stop-opacity=".75"/></linearGradient><path d="m8 12.794v1.073c-1.502.003-3.005-.571-4.151-1.721-1.142-1.145-1.714-2.645-1.716-4.146h1.069c.002 1.226.469 2.453 1.402 3.387.937.94 2.167 1.409 3.395 1.407z" fill="url(#f)" fill-rule="evenodd"/><linearGradient x1="17.46" y1="21.991" x2="21.875" y2="17.576" id="g" gradientUnits="userSpaceOnUse" gradientTransform="matrix(.533 0 0 .533 -.533 -.533)"><stop offset="0" stop-opacity=".75"/><stop offset="1" stop-opacity=".5"/></linearGradient><path d="m8 11.733v-1.064c.683-.001 1.366-.261 1.886-.781.523-.522.784-1.205.784-1.888h1.063c-.002.955-.366 1.909-1.094 2.638-.728.729-1.683 1.094-2.639 1.095z" fill="url(#g)" fill-rule="evenodd"/><linearGradient x1="22.423" y1="14.981" x2="17.015" y2="9.574" id="h" gradientUnits="userSpaceOnUse" gradientTransform="matrix(.533 0 0 .533 -.533 -.533)"><stop offset="0" stop-opacity=".5"/><stop offset="1" stop-opacity=".25"/></linearGradient><path d="m8 4.267c.956.001 1.911.365 2.639 1.091.732.729 1.096 1.686 1.094 2.642h-1.063c-.001-.679-.261-1.359-.783-1.878-.521-.518-1.204-.778-1.887-.779v-1.077z" fill="url(#h)" fill-rule="evenodd"/><linearGradient x1="26.383" y1="14.11" x2="17.885" y2="5.612" id="i" gradientUnits="userSpaceOnUse" gradientTransform="matrix(.533 0 0 .533 -.533 -.533)"><stop offset="0" stop-opacity=".5"/><stop offset="1" stop-opacity=".25"/></linearGradient><path d="M8 3.203v-1.07c1.501.002 3.001.574 4.146 1.716 1.15 1.146 1.723 2.649 1.721 4.151h-1.073c.003-1.228-.466-2.457-1.406-3.395-.935-.933-2.161-1.4-3.387-1.402z" fill="url(#i)" fill-rule="evenodd"/><linearGradient x1="9.853" y1="14.704" x2="14.704" y2="9.852" id="j" gradientUnits="userSpaceOnUse" gradientTransform="matrix(.533 0 0 .533 -.533 -.533)"><stop offset="0" stop-opacity="0"/><stop offset="1" stop-opacity=".25"/></linearGradient><path d="M8 4.267v1.077c-.684-.001-1.368.259-1.89.779-.521.519-.781 1.198-.781 1.878h-1.061c-.002-.956.362-1.913 1.091-2.642.73-.729 1.686-1.093 2.642-1.092z" fill="url(#j)" fill-rule="evenodd"/><linearGradient x1="6.049" y1="13.672" x2="13.673" y2="6.048" id="k" gradientUnits="userSpaceOnUse" gradientTransform="matrix(.533 0 0 .533 -.533 -.533)"><stop offset="0" stop-opacity="0"/><stop offset="1" stop-opacity=".25"/></linearGradient><path d="M8 2.133v1.07c-1.228-.002-2.458.465-3.395 1.402-.937.938-1.404 2.166-1.402 3.395h-1.069c-.002-1.502.569-3.005 1.716-4.151 1.146-1.146 2.649-1.718 4.151-1.716z" fill="url(#k)" fill-rule="evenodd"/><linearGradient x1="18.574" y1="25.695" x2="25.513" y2="18.756" id="l" gradientUnits="userSpaceOnUse" gradientTransform="matrix(.533 0 0 .533 -.533 -.533)"><stop offset="0" stop-opacity=".75"/><stop offset="1" stop-opacity=".5"/></linearGradient><path d="M8 13.867v-1.073c1.226-.003 2.452-.471 3.388-1.407.936-.934 1.404-2.161 1.406-3.387h1.073c-.002 1.501-.575 3.001-1.721 4.146-1.145 1.146-2.645 1.719-4.146 1.722z" fill="url(#l)" fill-rule="evenodd"/></svg>