<svg xmlns="http://www.w3.org/2000/svg" width="50" height="50"><path fill-rule="evenodd" clip-rule="evenodd" fill="#82E37B" d="M12.874 13.567h10.786s2.998 2.495 4.337 5.224c.712 1.451 1.164 3.342 1.188 5.255h8.258s.242 1.984-.49 4.625c-.971 3.498-3.951 8.282-9.728 10.17-1.243 .406-2.642 .501-4.204 .652 0 0-4.467 .152-8.508-2.669-2.916-2.037-5.748-5.946-6.639-12.074 .001 0 .076-6.328 5-11.183z"/><path d="M45.078 3.431h-33.294s-4.921 1.339-4.921 5.26v2.922c-1.55 .766-2.867 1.913-3.921 3.426-1.723 2.47-2.749 5.919-2.942 10.3v1.622h6.862v15.025c0 3.582 4.33 4.582 4.921 4.582h33.294s4.922-1 4.922-4.582v-33.295c.001-3.921-4.218-5.26-4.921-5.26zM7.897 24.02h-4.7780000000000005c.264-3.564 1.421-6.666 3.744-8.553 1.492-1.21 3.458-1.925 5.993-1.925-.765 .74-1.453 1.52-2.072 2.466-1.492 2.281-2.525 5.07-2.887 8.012zM26.471 25.339v1.622h7.854c-1.001 5.883-5.692 9.566-11.319 9.566-6.355 0-11.525-5-11.525-11.355 0-5.088 2.86-10.058 7.902-10.934 3.591 1.819 6.827 5.94 7.088 11.101zM23.642 13.51c6.771 0 10.426 5.771 10.613 10.51h-5.088c-.082-5.352-2.813-7.958-5.525-10.51zM46.078 41.025c0 1.961-1.961 1.621-1.961 1.621h-31.372c-1.961 0-1.961-1.623-1.961-1.623v-8.143c2.566 4.054 7.078 6.588 12.22 6.588 7.252 0 13.258-5.645 14.291-12.508l.068-.285c.064-.551 .105-.94 .105-1.509 0-5.222-2.666-14.873-15.343-14.873h-11.343v-.641s0-2.3 1.961-2.3h31.372s1.961 .339 1.961 2.3c.002 7.844 .002 23.53 .002 31.373z" opacity=".45"/></svg>