<svg xmlns="http://www.w3.org/2000/svg" viewBox="-8.5 25.5 16 16" enable-background="new -8.5 25.5 16 16"><path fill="#f6871f" d="m-6.5 25.5h12c1.1 0 2 .9 2 2v12c0 1.1-.9 2-2 2h-12c-1.1 0-2-.9-2-2v-12c0-1.1.9-2 2-2"/><path fill="#fff" d="m3.3 33.98c-.19-.37-.7-.68-1.38-.15-.93.73-2.41.73-2.41.73s-1.49 0-2.41-.73c-.68-.54-1.2-.23-1.38.15-.32.65.04.97.87 1.5.71.45 1.68.62 2.3.69l-.52.52-1.94 1.94c-.29.29-.29.77 0 1.07l.09.09c.15.15.34.22.53.22s.39-.07.53-.22l1.94-1.94 1.94 1.94c.3.3.77.3 1.07 0l.09-.09c.29-.3.29-.77 0-1.07l-1.94-1.94-.52-.52c.63-.06 1.59-.23 2.29-.68.62-.4.98-.67.98-1.06 0-.13-.04-.27-.12-.43m-3.79-6.98c-1.82 0-3.3 1.48-3.3 3.29 0 1.82 1.47 3.29 3.29 3.29 1.82 0 3.29-1.47 3.29-3.29 0-1.82-1.47-3.29-3.29-3.29m0 1.67c.9 0 1.62.73 1.62 1.62 0 .89-.73 1.62-1.62 1.62-.9 0-1.62-.73-1.62-1.62 0-.9.72-1.62 1.62-1.62"/></svg>