<svg xmlns="http://www.w3.org/2000/svg" viewBox="0 0 40 40"><linearGradient id="a" gradientUnits="userSpaceOnUse" x1="217.858" y1="-261.518" x2="227.799" y2="-271.459" gradientTransform="matrix(1.333 0 0 -1.333 -287.498 -322.866)"><stop offset="0" stop-color="#fff"/><stop offset="1" stop-color="#fff" stop-opacity=".75"/></linearGradient><path fill="url(#a)" d="M20 37.373v2.627c-5.123.005-10.243-1.947-14.15-5.865-3.895-3.905-5.845-9.02-5.85-14.135h2.665c0 4.445 1.692 8.891 5.078 12.283 3.384 3.392 7.822 5.09 12.257 5.09z"/><linearGradient id="b" gradientUnits="userSpaceOnUse" x1="234.477" y1="-270.729" x2="243.938" y2="-261.267" gradientTransform="matrix(1.333 0 0 -1.333 -287.498 -322.866)"><stop offset="0" stop-color="#fff" stop-opacity=".75"/><stop offset="1" stop-color="#fff" stop-opacity=".5"/></linearGradient><path fill="url(#b)" d="M34.135 34.135c-3.905 3.905-9.018 5.857-14.135 5.865v-2.627c4.445-.003 8.893-1.698 12.285-5.09 3.39-3.393 5.088-7.838 5.088-12.283h2.629c-.007 5.115-1.959 10.232-5.864 14.135h-.003z"/><linearGradient id="c" gradientUnits="userSpaceOnUse" x1="245.106" y1="-254.534" x2="233.519" y2="-242.947" gradientTransform="matrix(1.333 0 0 -1.333 -287.498 -322.866)"><stop offset="0" stop-color="#fff" stop-opacity=".5"/><stop offset="1" stop-color="#fff" stop-opacity=".25"/></linearGradient><path fill="url(#c)" d="M37.37 20c.003-4.435-1.695-8.873-5.087-12.257-3.393-3.385-7.838-5.075-12.286-5.075v-2.666c5.118.005 10.233 1.955 14.135 5.85 3.914 3.907 5.869 9.027 5.865 14.15h-2.631l.004-.002z"/><linearGradient id="d" gradientUnits="userSpaceOnUse" x1="217.01" y1="-253.946" x2="227.406" y2="-243.549" gradientTransform="matrix(1.333 0 0 -1.333 -287.498 -322.866)"><stop offset="0" stop-color="#fff" stop-opacity="0"/><stop offset="1" stop-color="#fff" stop-opacity=".25"/></linearGradient><path fill="url(#d)" d="M20 2.665c-4.435 0-8.873 1.692-12.257 5.078-3.386 3.384-5.078 7.822-5.078 12.257h-2.665c-.007-5.123 1.942-10.243 5.85-14.15 3.907-3.908 9.027-5.855 14.15-5.85v2.665z"/><linearGradient id="e" gradientUnits="userSpaceOnUse" x1="225.004" y1="-259.005" x2="229.643" y2="-263.644" gradientTransform="matrix(1.333 0 0 -1.333 -287.498 -322.866)"><stop offset="0" stop-color="#fff"/><stop offset="1" stop-color="#fff" stop-opacity=".75"/></linearGradient><path fill="url(#e)" d="M20 29.332c-2.388.003-4.78-.91-6.605-2.736-1.815-1.823-2.725-4.208-2.73-6.596h2.652c-.002 1.707.65 3.415 1.953 4.721 1.305 1.305 3.015 1.954 4.725 1.951v2.66h.005z"/><linearGradient id="f" gradientUnits="userSpaceOnUse" x1="221.435" y1="-260.258" x2="228.726" y2="-267.548" gradientTransform="matrix(1.333 0 0 -1.333 -287.498 -322.866)"><stop offset="0" stop-color="#fff"/><stop offset="1" stop-color="#fff" stop-opacity=".75"/></linearGradient><path fill="url(#f)" d="M20 31.984v2.684c-3.755.007-7.513-1.428-10.377-4.303-2.855-2.863-4.286-6.613-4.29-10.365h2.672c.005 3.064 1.173 6.133 3.505 8.467 2.343 2.351 5.418 3.523 8.488 3.518h.002z"/><linearGradient id="g" gradientUnits="userSpaceOnUse" x1="232.23" y1="-263.304" x2="236.644" y2="-258.889" gradientTransform="matrix(1.333 0 0 -1.333 -287.498 -322.866)"><stop offset="0" stop-color="#fff" stop-opacity=".75"/><stop offset="1" stop-color="#fff" stop-opacity=".5"/></linearGradient><path fill="url(#g)" d="M20 29.332v-2.66c1.707-.002 3.415-.652 4.715-1.951 1.308-1.306 1.96-3.014 1.96-4.721h2.657c-.004 2.388-.914 4.772-2.734 6.596-1.821 1.822-4.207 2.734-6.598 2.736z"/><linearGradient id="h" gradientUnits="userSpaceOnUse" x1="237.186" y1="-256.279" x2="231.778" y2="-250.872" gradientTransform="matrix(1.333 0 0 -1.333 -287.498 -322.866)"><stop offset="0" stop-color="#fff" stop-opacity=".5"/><stop offset="1" stop-color="#fff" stop-opacity=".25"/></linearGradient><path fill="url(#h)" d="M20 10.667c2.391.002 4.777.913 6.598 2.728 1.83 1.822 2.74 4.215 2.734 6.605h-2.657c-.003-1.697-.652-3.397-1.958-4.695-1.302-1.295-3.01-1.945-4.717-1.948v-2.69z"/><linearGradient id="i" gradientUnits="userSpaceOnUse" x1="241.145" y1="-255.408" x2="232.648" y2="-246.91" gradientTransform="matrix(1.333 0 0 -1.333 -287.498 -322.866)"><stop offset="0" stop-color="#fff" stop-opacity=".5"/><stop offset="1" stop-color="#fff" stop-opacity=".25"/></linearGradient><path fill="url(#i)" d="M20 8.007v-2.674c3.752.005 7.502 1.435 10.365 4.29 2.875 2.865 4.307 6.623 4.303 10.377h-2.684c.008-3.07-1.164-6.143-3.514-8.487-2.338-2.333-5.403-3.5-8.468-3.505h-.002z"/><linearGradient id="j" gradientUnits="userSpaceOnUse" x1="224.619" y1="-256.012" x2="229.47" y2="-251.16" gradientTransform="matrix(1.333 0 0 -1.333 -287.498 -322.866)"><stop offset="0" stop-color="#fff" stop-opacity="0"/><stop offset="1" stop-color="#fff" stop-opacity=".25"/></linearGradient><path fill="url(#j)" d="M20 10.667v2.692c-1.71-.002-3.42.647-4.725 1.948-1.302 1.297-1.953 2.995-1.953 4.695h-2.652c-.005-2.39.905-4.782 2.728-6.605 1.825-1.822 4.215-2.732 6.605-2.73h-.003z"/><linearGradient id="k" gradientUnits="userSpaceOnUse" x1="220.813" y1="-254.977" x2="228.436" y2="-247.353" gradientTransform="matrix(1.333 0 0 -1.333 -287.498 -322.866)"><stop offset="0" stop-color="#fff" stop-opacity="0"/><stop offset="1" stop-color="#fff" stop-opacity=".25"/></linearGradient><path fill="url(#k)" d="M20 5.333v2.675c-3.07-.005-6.145 1.163-8.487 3.505-2.343 2.344-3.511 5.415-3.506 8.487h-2.672c-.005-3.755 1.422-7.513 4.29-10.377 2.865-2.865 6.623-4.295 10.377-4.29h-.002z"/><linearGradient id="l" gradientUnits="userSpaceOnUse" x1="233.345" y1="-267.008" x2="240.284" y2="-260.069" gradientTransform="matrix(1.333 0 0 -1.333 -287.498 -322.866)"><stop offset="0" stop-color="#fff" stop-opacity=".75"/><stop offset="1" stop-color="#fff" stop-opacity=".5"/></linearGradient><path fill="url(#l)" d="M20 34.668v-2.684c3.064-.007 6.13-1.177 8.471-3.518 2.34-2.334 3.51-5.402 3.514-8.467h2.684c-.006 3.752-1.438 7.502-4.303 10.365-2.864 2.866-6.614 4.298-10.366 4.306v-.002z"/></svg>