<svg xmlns="http://www.w3.org/2000/svg" viewBox="0 0 32 32" enable-background="new 0 0 32 32"><linearGradient id="a" gradientUnits="userSpaceOnUse" x1="3.104" y1="20.212" x2="13.045" y2="30.153"><stop offset="0"/><stop offset="1" stop-opacity=".75"/></linearGradient><path fill-rule="evenodd" clip-rule="evenodd" fill="url(#a)" d="M16 29.029v1.971c-3.841.004-7.682-1.461-10.612-4.398-2.922-2.928-4.384-6.765-4.388-10.602h1.998c0 3.334 1.27 6.668 3.808 9.212 2.539 2.545 5.867 3.817 9.194 3.817z"/><linearGradient id="b" gradientUnits="userSpaceOnUse" x1="19.703" y1="29.414" x2="29.165" y2="19.952"><stop offset="0" stop-opacity=".75"/><stop offset="1" stop-opacity=".5"/></linearGradient><path fill-rule="evenodd" clip-rule="evenodd" fill="url(#b)" d="M26.602 26.602c-2.928 2.928-6.764 4.393-10.602 4.398v-1.971c3.334-.001 6.669-1.273 9.213-3.817 2.543-2.544 3.815-5.878 3.815-9.212h1.972c-.005 3.837-1.47 7.674-4.398 10.602z"/><linearGradient id="c" gradientUnits="userSpaceOnUse" x1="30.344" y1="13.236" x2="18.757" y2="1.649"><stop offset="0" stop-opacity=".5"/><stop offset="1" stop-opacity=".25"/></linearGradient><path fill-rule="evenodd" clip-rule="evenodd" fill="url(#c)" d="M29.028 16c.001-3.327-1.271-6.655-3.815-9.194-2.544-2.538-5.879-3.807-9.213-3.807v-1.999c3.838.004 7.674 1.467 10.602 4.388 2.937 2.93 4.403 6.771 4.398 10.612h-1.972z"/><linearGradient id="d" gradientUnits="userSpaceOnUse" x1="2.247" y1="12.642" x2="12.643" y2="2.245"><stop offset="0" stop-opacity="0"/><stop offset="1" stop-opacity=".25"/></linearGradient><path fill-rule="evenodd" clip-rule="evenodd" fill="url(#d)" d="M16 2.999c-3.327 0-6.655 1.269-9.194 3.808s-3.808 5.866-3.808 9.193h-1.998c-.005-3.841 1.457-7.682 4.388-10.612 2.93-2.93 6.771-4.392 10.612-4.388v1.999z"/><linearGradient id="e" gradientUnits="userSpaceOnUse" x1="10.248" y1="17.701" x2="14.887" y2="22.34"><stop offset="0"/><stop offset="1" stop-opacity=".75"/></linearGradient><path fill-rule="evenodd" clip-rule="evenodd" fill="url(#e)" d="M16 23c-1.791.002-3.585-.683-4.953-2.053-1.361-1.367-2.043-3.156-2.047-4.947h1.99c-.001 1.281.487 2.562 1.465 3.54.979.979 2.261 1.467 3.544 1.465v1.995z"/><linearGradient id="f" gradientUnits="userSpaceOnUse" x1="6.68" y1="18.953" x2="13.97" y2="26.243"><stop offset="0"/><stop offset="1" stop-opacity=".75"/></linearGradient><path fill-rule="evenodd" clip-rule="evenodd" fill="url(#f)" d="M16 24.989v2.011c-2.817.005-5.635-1.07-7.783-3.227-2.141-2.146-3.213-4.959-3.217-7.773h2.005c.004 2.299.88 4.599 2.629 6.351 1.757 1.763 4.063 2.642 6.366 2.638z"/><linearGradient id="g" gradientUnits="userSpaceOnUse" x1="17.46" y1="21.991" x2="21.875" y2="17.576"><stop offset="0" stop-opacity=".75"/><stop offset="1" stop-opacity=".5"/></linearGradient><path fill-rule="evenodd" clip-rule="evenodd" fill="url(#g)" d="M16 23v-1.995c1.28-.002 2.561-.49 3.537-1.465.98-.978 1.47-2.259 1.47-3.54h1.993c-.003 1.791-.687 3.58-2.052 4.947s-3.156 2.051-4.948 2.053z"/><linearGradient id="h" gradientUnits="userSpaceOnUse" x1="22.423" y1="14.981" x2="17.015" y2="9.574"><stop offset="0" stop-opacity=".5"/><stop offset="1" stop-opacity=".25"/></linearGradient><path fill-rule="evenodd" clip-rule="evenodd" fill="url(#h)" d="M16 9c1.792.002 3.583.684 4.949 2.046 1.372 1.367 2.055 3.162 2.052 4.954h-1.994c-.001-1.273-.49-2.548-1.469-3.521-.977-.972-2.258-1.458-3.538-1.46v-2.019z"/><linearGradient id="i" gradientUnits="userSpaceOnUse" x1="26.383" y1="14.11" x2="17.885" y2="5.612"><stop offset="0" stop-opacity=".5"/><stop offset="1" stop-opacity=".25"/></linearGradient><path fill-rule="evenodd" clip-rule="evenodd" fill="url(#i)" d="M16 7.006v-2.006c2.814.004 5.627 1.076 7.774 3.217 2.156 2.149 3.231 4.966 3.226 7.783h-2.012c.005-2.303-.873-4.607-2.637-6.365-1.753-1.749-4.052-2.625-6.351-2.629z"/><linearGradient id="j" gradientUnits="userSpaceOnUse" x1="9.853" y1="14.704" x2="14.704" y2="9.852"><stop offset="0" stop-opacity="0"/><stop offset="1" stop-opacity=".25"/></linearGradient><path fill-rule="evenodd" clip-rule="evenodd" fill="url(#j)" d="M16 9v2.02c-1.283-.002-2.565.485-3.544 1.46-.977.973-1.465 2.247-1.465 3.521h-1.99c-.003-1.792.679-3.587 2.046-4.954 1.368-1.367 3.162-2.049 4.953-2.047z"/><linearGradient id="k" gradientUnits="userSpaceOnUse" x1="6.049" y1="13.672" x2="13.673" y2="6.048"><stop offset="0" stop-opacity="0"/><stop offset="1" stop-opacity=".25"/></linearGradient><path fill-rule="evenodd" clip-rule="evenodd" fill="url(#k)" d="M16 5v2.006c-2.303-.004-4.609.872-6.366 2.629-1.757 1.758-2.633 4.062-2.629 6.365h-2.005c-.004-2.817 1.067-5.634 3.217-7.783 2.148-2.149 4.966-3.221 7.783-3.217z"/><linearGradient id="l" gradientUnits="userSpaceOnUse" x1="18.574" y1="25.695" x2="25.513" y2="18.756"><stop offset="0" stop-opacity=".75"/><stop offset="1" stop-opacity=".5"/></linearGradient><path fill-rule="evenodd" clip-rule="evenodd" fill="url(#l)" d="M16 27v-2.011c2.299-.005 4.598-.883 6.352-2.639 1.755-1.752 2.633-4.052 2.637-6.351h2.011c-.004 2.814-1.079 5.627-3.226 7.773-2.147 2.149-4.96 3.224-7.774 3.228z"/></svg>