<svg xmlns="http://www.w3.org/2000/svg" viewBox="0 0 40 40"><linearGradient id="a" gradientUnits="userSpaceOnUse" x1="217.73" y1="-261.337" x2="227.67" y2="-271.277" gradientTransform="matrix(1.333 0 0 -1.333 -287.501 -322.834)"><stop offset="0" stop-color="#fff"/><stop offset="1" stop-color="#fff" stop-opacity=".75"/></linearGradient><path fill="url(#a)" d="M20 37.371v2.629c-5.122.005-10.243-1.948-14.149-5.864-3.896-3.905-5.845-9.021-5.851-14.136h2.664c0 4.445 1.693 8.891 5.078 12.283 3.384 3.393 7.822 5.088 12.258 5.088z"/><linearGradient id="b" gradientUnits="userSpaceOnUse" x1="234.329" y1="-270.538" x2="243.791" y2="-261.077" gradientTransform="matrix(1.333 0 0 -1.333 -287.501 -322.834)"><stop offset="0" stop-color="#fff" stop-opacity=".75"/><stop offset="1" stop-color="#fff" stop-opacity=".5"/></linearGradient><path fill="url(#b)" d="M34.136 34.136c-3.905 3.904-9.019 5.857-14.136 5.864v-2.629c4.445-.001 8.892-1.697 12.284-5.088 3.391-3.393 5.087-7.838 5.087-12.283h2.629c-.007 5.115-1.96 10.231-5.864 14.136z"/><linearGradient id="c" gradientUnits="userSpaceOnUse" x1="244.969" y1="-254.361" x2="233.382" y2="-242.774" gradientTransform="matrix(1.333 0 0 -1.333 -287.501 -322.834)"><stop offset="0" stop-color="#fff" stop-opacity=".5"/><stop offset="1" stop-color="#fff" stop-opacity=".25"/></linearGradient><path fill="url(#c)" d="M37.371 20c.002-4.436-1.695-8.874-5.087-12.258-3.391-3.385-7.839-5.076-12.284-5.076v-2.665c5.117.005 10.231 1.956 14.136 5.851 3.916 3.906 5.871 9.028 5.864 14.149l-2.629-.001z"/><linearGradient id="d" gradientUnits="userSpaceOnUse" x1="216.872" y1="-253.766" x2="227.268" y2="-243.369" gradientTransform="matrix(1.333 0 0 -1.333 -287.501 -322.834)"><stop offset="0" stop-color="#fff" stop-opacity="0"/><stop offset="1" stop-color="#fff" stop-opacity=".25"/></linearGradient><path fill="url(#d)" d="M20 2.665c-4.436 0-8.874 1.691-12.258 5.078-3.386 3.384-5.078 7.821-5.078 12.257h-2.664c-.007-5.122 1.942-10.243 5.851-14.149 3.906-3.907 9.028-5.856 14.149-5.851v2.665z"/><linearGradient id="e" gradientUnits="userSpaceOnUse" x1="224.874" y1="-258.826" x2="229.513" y2="-263.465" gradientTransform="matrix(1.333 0 0 -1.333 -287.501 -322.834)"><stop offset="0" stop-color="#fff"/><stop offset="1" stop-color="#fff" stop-opacity=".75"/></linearGradient><path fill="url(#e)" d="M20 29.334c-2.388.002-4.78-.912-6.604-2.738-1.815-1.822-2.724-4.208-2.729-6.596h2.653c-.001 1.709.649 3.416 1.954 4.721 1.305 1.305 3.015 1.955 4.725 1.953v2.66h.001z"/><linearGradient id="f" gradientUnits="userSpaceOnUse" x1="221.306" y1="-260.079" x2="228.596" y2="-267.369" gradientTransform="matrix(1.333 0 0 -1.333 -287.501 -322.834)"><stop offset="0" stop-color="#fff"/><stop offset="1" stop-color="#fff" stop-opacity=".75"/></linearGradient><path fill="url(#f)" d="M20 31.984v2.682c-3.756.008-7.513-1.426-10.377-4.302-2.855-2.862-4.285-6.612-4.29-10.364h2.673c.005 3.064 1.173 6.132 3.505 8.469 2.342 2.351 5.417 3.521 8.488 3.518v-.003z"/><linearGradient id="g" gradientUnits="userSpaceOnUse" x1="232.085" y1="-263.116" x2="236.5" y2="-258.701" gradientTransform="matrix(1.333 0 0 -1.333 -287.501 -322.834)"><stop offset="0" stop-color="#fff" stop-opacity=".75"/><stop offset="1" stop-color="#fff" stop-opacity=".5"/></linearGradient><path fill="url(#g)" d="M20 29.334v-2.66c1.707-.003 3.415-.654 4.716-1.953 1.307-1.305 1.96-3.012 1.96-4.721h2.658c-.005 2.389-.916 4.773-2.736 6.596s-4.209 2.735-6.598 2.738z"/><linearGradient id="h" gradientUnits="userSpaceOnUse" x1="237.049" y1="-256.106" x2="231.641" y2="-250.7" gradientTransform="matrix(1.333 0 0 -1.333 -287.501 -322.834)"><stop offset="0" stop-color="#fff" stop-opacity=".5"/><stop offset="1" stop-color="#fff" stop-opacity=".25"/></linearGradient><path fill="url(#h)" d="M20 10.667c2.389.002 4.777.912 6.598 2.729 1.83 1.822 2.74 4.216 2.736 6.605h-2.658c-.002-1.697-.653-3.397-1.959-4.695-1.302-1.296-3.01-1.944-4.717-1.947v-2.692z"/><linearGradient id="i" gradientUnits="userSpaceOnUse" x1="241.008" y1="-255.236" x2="232.509" y2="-246.738" gradientTransform="matrix(1.333 0 0 -1.333 -287.501 -322.834)"><stop offset="0" stop-color="#fff" stop-opacity=".5"/><stop offset="1" stop-color="#fff" stop-opacity=".25"/></linearGradient><path fill="url(#i)" d="M20 8.008v-2.675c3.752.005 7.502 1.435 10.365 4.289 2.875 2.865 4.309 6.622 4.301 10.377h-2.682c.006-3.071-1.164-6.143-3.516-8.487-2.337-2.33-5.402-3.499-8.468-3.504z"/><linearGradient id="j" gradientUnits="userSpaceOnUse" x1="224.48" y1="-255.829" x2="229.33" y2="-250.978" gradientTransform="matrix(1.333 0 0 -1.333 -287.501 -322.834)"><stop offset="0" stop-color="#fff" stop-opacity="0"/><stop offset="1" stop-color="#fff" stop-opacity=".25"/></linearGradient><path fill="url(#j)" d="M20 10.667v2.693c-1.711-.002-3.42.647-4.725 1.947-1.302 1.297-1.953 2.996-1.953 4.695h-2.653c-.004-2.389.905-4.782 2.728-6.605 1.824-1.823 4.215-2.732 6.603-2.73z"/><linearGradient id="k" gradientUnits="userSpaceOnUse" x1="220.674" y1="-254.796" x2="228.298" y2="-247.172" gradientTransform="matrix(1.333 0 0 -1.333 -287.501 -322.834)"><stop offset="0" stop-color="#fff" stop-opacity="0"/><stop offset="1" stop-color="#fff" stop-opacity=".25"/></linearGradient><path fill="url(#k)" d="M20 5.333v2.675c-3.071-.005-6.145 1.163-8.488 3.505-2.343 2.344-3.511 5.416-3.505 8.487h-2.674c-.005-3.756 1.422-7.512 4.289-10.377 2.865-2.866 6.622-4.295 10.378-4.29z"/><linearGradient id="l" gradientUnits="userSpaceOnUse" x1="233.198" y1="-266.819" x2="240.137" y2="-259.88" gradientTransform="matrix(1.333 0 0 -1.333 -287.501 -322.834)"><stop offset="0" stop-color="#fff" stop-opacity=".75"/><stop offset="1" stop-color="#fff" stop-opacity=".5"/></linearGradient><path fill="url(#l)" d="M20 34.666v-2.682c3.064-.006 6.131-1.177 8.469-3.518 2.34-2.336 3.512-5.402 3.516-8.468h2.682c-.004 3.751-1.438 7.502-4.301 10.364-2.864 2.866-6.614 4.298-10.366 4.304z"/></svg>